# xmcd
#
# Track frame offsets: 
#        150
#        12402
#        30945
#        43570
#        61032
#        75850
#        89565
#        126050
#        137645
#        154492
#        175270
#        188200
#        201980
#        213112
#        227265
#        246280
#        263442
#
# Disc length: 3744 seconds
#
# Revision: 3
# Processed by: cddbd v1.5.2PL0 Copyright (c) Steve Scherf et al.
# Submitted via: ExactAudioCopy v1.0b3
#
DISCID=d20e9e11
DTITLE=New Trail Riders - Swamp Music Vol. 9
DYEAR=1995
DGENRE=country
TTITLE0=Basin Brothers - Oh Tite Fille
TTITLE1=Le Rue - Tit Galop Pour Mamou
TTITLE2=Jambalaya Cajun Band - La Coulee Rodaire
TTITLE3=Mamou - Ugly Day Stomp
TTITLE4=Mamou Prairie Band - Valse Du Soleil Couche
TTITLE5=File - Quoi Faire
TTITLE6=Steve Riley - Bosco Stomp
TTITLE7=Balfa Toujours - Hip Et Taiau
TTITLE8=Tasso - Les Filles De La Louisianna
TTITLE9=File - Mardi Gras Song
TTITLE10=Al Berard - Song For Dewey
TTITLE11=Tasso - La Rompe
TTITLE12=Balfa Toujours - Tu Peux Cogner
TTITLE13=Al Berard - Explain That For Me
TTITLE14=Mamou Prairie Band - Attrape-Moi Mon Chapeau
TTITLE15=Jimmy Thibodeaux and Gumbo Band - Ruth Anne
TTITLE16=Mamou - Dance On The Bayou
EXTD=
EXTT0=
EXTT1=
EXTT2=
EXTT3=
EXTT4=
EXTT5=
EXTT6=
EXTT7=
EXTT8=
EXTT9=
EXTT10=
EXTT11=
EXTT12=
EXTT13=
EXTT14=
EXTT15=
EXTT16=
PLAYORDER=
